<svg width="99" height="57" viewBox="0 0 99 57" fill="none" xmlns="http://www.w3.org/2000/svg">
<path d="M17.3559 26.6623H16.4718C13.5249 26.6623 11.4465 27.4068 10.2367 28.8957V43.041H2.79181V20.241H10.0041V24.0566C10.4383 22.8157 11.1053 21.8386 12.0049 21.1251C12.9045 20.4117 14.0832 20.0549 15.5412 20.0549C15.9755 20.0549 16.3322 20.0859 16.6114 20.148C16.9216 20.179 17.2318 20.241 17.542 20.3341L17.3559 26.6623ZM20.4226 43.041V20.241H27.8674V43.041H20.4226ZM19.9573 13.5872C19.9573 12.4084 20.345 11.4157 21.1205 10.6092C21.896 9.80267 22.9042 9.39941 24.1449 9.39941C25.3859 9.39941 26.394 9.80267 27.1694 10.6092C27.9451 11.4157 28.3327 12.4084 28.3327 13.5872C28.3327 14.766 27.9451 15.7586 27.1694 16.5651C26.394 17.3717 25.3859 17.7749 24.1449 17.7749C22.9042 17.7749 21.896 17.3717 21.1205 16.5651C20.345 15.7586 19.9573 14.766 19.9573 13.5872ZM55.0541 43.041H47.9349V40.1562C47.2213 41.1798 46.2907 42.0018 45.143 42.6223C44.0263 43.2116 42.6769 43.5064 41.0949 43.5064C39.823 43.5064 38.6288 43.2428 37.512 42.7153C36.3953 42.157 35.4181 41.3815 34.5806 40.3888C33.774 39.3651 33.1381 38.1397 32.6728 36.7129C32.2075 35.286 31.9749 33.6884 31.9749 31.9202C31.9749 29.935 32.285 28.1822 32.9055 26.6623C33.5569 25.1423 34.4101 23.8704 35.4647 22.8468C36.5505 21.8231 37.8068 21.0631 39.2337 20.5668C40.6605 20.0394 42.1807 19.7757 43.7936 19.7757C44.6003 19.7757 45.3136 19.8378 45.9341 19.9619C46.5545 20.0549 47.1129 20.179 47.6092 20.3341V10.1904H55.0541V43.041ZM43.7936 37.7831C45.3757 37.7831 46.6476 37.2557 47.6092 36.201V25.7317C46.9268 25.4834 46.0427 25.3594 44.9569 25.3594C43.0957 25.3594 41.6998 25.9334 40.7692 27.081C39.8695 28.2287 39.4198 29.7954 39.4198 31.7806C39.4198 33.5488 39.7611 34.9913 40.4434 36.108C41.157 37.2247 42.2737 37.7831 43.7936 37.7831ZM60.637 43.041V20.241H68.0819V43.041H60.637ZM60.1717 13.5872C60.1717 12.4084 60.5593 11.4157 61.335 10.6092C62.1104 9.80267 63.1185 9.39941 64.3595 9.39941C65.6002 9.39941 66.6083 9.80267 67.384 10.6092C68.1594 11.4157 68.5472 12.4084 68.5472 13.5872C68.5472 14.766 68.1594 15.7586 67.384 16.5651C66.6083 17.3717 65.6002 17.7749 64.3595 17.7749C63.1185 17.7749 62.1104 17.3717 61.335 16.5651C60.5593 15.7586 60.1717 14.766 60.1717 13.5872ZM73.6784 43.041V20.241H80.8441V23.219C81.5574 21.9782 82.4727 21.0941 83.5894 20.5668C84.7371 20.0394 85.9469 19.7757 87.2188 19.7757C88.7387 19.7757 90.026 20.1015 91.0808 20.7529C92.1355 21.3733 92.9886 22.2109 93.64 23.2655C94.3224 24.3202 94.8033 25.5455 95.0825 26.9415C95.3926 28.3064 95.5478 29.7489 95.5478 31.2688V43.041H88.1029V31.1292C88.1029 29.237 87.8081 27.8565 87.2188 26.988C86.6293 26.0883 85.7298 25.6386 84.52 25.6386C83.7444 25.6386 83.062 25.8091 82.4727 26.1504C81.9143 26.4917 81.4644 26.9105 81.1233 27.4068V43.041H73.6784Z" fill="black"/>
<path d="M24.0796 17.9143C26.4567 17.9143 28.3837 15.9873 28.3837 13.6102C28.3837 11.2332 26.4567 9.30615 24.0796 9.30615C21.7025 9.30615 19.7755 11.2332 19.7755 13.6102C19.7755 15.9873 21.7025 17.9143 24.0796 17.9143Z" fill="#4269F4"/>
<path d="M64.5 18C66.9853 18 69 15.9853 69 13.5C69 11.0147 66.9853 9 64.5 9C62.0147 9 60 11.0147 60 13.5C60 15.9853 62.0147 18 64.5 18Z" fill="#4269F4"/>
</svg>
